<svg xmlns="http://www.w3.org/2000/svg" width="74" height="74" viewBox="0 0 74 74" preserveAspectRatio="xMidYMid meet"><defs><style>.a{fill:#eee;}</style></defs><path class="a" d="M37,74A37.0424,37.0424,0,0,1,0,37H0A37,37,0,1,1,37,74ZM3.0487,37A33.9513,33.9513,0,1,0,37,3.0487,33.99,33.99,0,0,0,3.0487,37Z"/><path class="a" d="M59.7623,38.3344a22.7623,22.7623,0,0,0-45.5246,0H11.1891a25.8109,25.8109,0,0,1,51.6218,0Z"/><circle class="a" cx="49.7491" cy="48.918" r="2.9076" transform="translate(-14.579 21.9025) rotate(-21.7368)"/><circle class="a" cx="24.2511" cy="48.918" r="2.9076" transform="translate(-16.3921 12.4595) rotate(-21.7368)"/></svg>